<svg xmlns="http://www.w3.org/2000/svg" width="24" height="24" viewBox="0 0 24 24" fill="none">
<path fill-rule="evenodd" clip-rule="evenodd" d="M12.013 21C15.8718 21 19 18.0851 19 14.4894C19 10.7908 17.194 9.16824 15.5369 7.67952C14.1325 6.41771 12.835 5.25206 12.835 3C10.369 4.14894 8.06058 7.09091 8.49816 10.7727C7.18543 10.3636 7.18543 9.54545 7.18543 8.31818C5.80591 10.1562 4.82548 11.8729 5.02605 14.4894C5.02605 18.0851 8.15422 21 12.013 21ZM10 19.6618C12 20 14.8269 19.6618 16.5 17.5C18.0301 15.523 18.1591 11.5358 15.9623 10C16.9386 14.3003 15.1522 16.2713 13.5 17.5C14.732 14.4859 14.2661 13.7498 13.9679 13.2785C13.8725 13.1278 13.7942 13.0041 13.7942 12.8417C13.5189 14.9919 11.6522 19.0474 10 19.6618Z" fill="#FF0000"/>
</svg>
